<svg version="1.1" id="Layer_1" xmlns="http://www.w3.org/2000/svg" xmlns:xlink="http://www.w3.org/1999/xlink" x="0px" y="0px"
	 width="100%" viewBox="0 0 1024 1024" enable-background="new 0 0 1024 1024" xml:space="preserve">
<path fill="#000000" opacity="1.000000" stroke="none" 
	d="
M616.328125,673.416260 
	C577.544922,694.192810 536.423035,701.031372 493.249969,697.541870 
	C487.600983,697.085327 481.960205,696.749939 476.420898,695.514587 
	C473.462128,694.854614 471.719269,696.588623 470.061127,698.535522 
	C457.317566,713.498047 444.648346,728.524475 431.827637,743.420654 
	C419.337860,757.932312 407.764313,773.223877 394.464142,787.048096 
	C385.848724,796.002869 375.661102,801.508911 363.050293,800.969482 
	C352.086609,800.500671 341.155243,799.276184 330.209808,798.382690 
	C327.974213,798.200195 325.683197,797.780945 324.963348,795.343933 
	C324.263245,792.973938 326.390106,791.785400 327.844025,790.515320 
	C345.659882,774.953186 363.097809,758.954590 381.452545,744.014465 
	C384.100189,741.859375 386.506439,739.513794 386.611267,735.860107 
	C386.717743,732.148804 384.691650,729.380615 381.543732,727.858154 
	C378.087708,726.186584 374.607330,726.989868 371.848389,729.655762 
	C353.155975,747.717834 333.316071,764.505798 313.985321,781.858521 
	C311.631226,783.971680 309.146698,785.938843 306.757416,788.013672 
	C300.758179,793.223206 293.781982,794.586182 286.191193,793.026428 
	C279.514008,791.654236 272.896729,789.992554 266.243958,788.498840 
	C263.261810,787.829346 260.030853,787.208374 259.202026,783.794189 
	C258.321350,780.166199 261.518555,778.494873 263.807465,776.751038 
	C280.639435,763.927979 297.499512,751.140564 314.449219,738.473694 
	C347.946442,713.440491 381.303925,688.213074 415.114044,663.608459 
	C437.250153,647.499390 462.263458,637.587036 489.252350,632.885742 
	C493.195343,632.198914 495.854401,630.560059 496.580536,626.615540 
	C497.340607,622.486572 495.233276,619.470886 491.944061,617.384216 
	C487.583282,614.617554 482.728729,614.754944 477.910706,615.850403 
	C458.250458,620.320496 440.009155,628.359375 422.526459,638.212524 
	C414.539703,642.713806 406.812012,647.663696 399.593475,653.329102 
	C396.862122,655.472778 394.773254,655.351257 392.134491,653.152771 
	C352.074799,619.777222 324.402924,578.701050 314.057922,527.010132 
	C311.087708,512.168762 309.045441,497.139801 310.658234,481.897644 
	C310.778351,480.762604 310.972107,479.635376 311.113678,478.631775 
	C313.016083,477.601929 314.180420,478.759491 315.366974,479.577332 
	C347.415009,501.667603 382.554901,517.516907 418.794434,531.260925 
	C449.332153,542.842468 480.696411,551.915710 511.563538,562.488525 
	C512.508423,562.812195 513.476013,563.070129 514.418335,563.400818 
	C515.955139,563.940063 518.025757,564.164612 517.946594,566.300964 
	C517.856812,568.720642 515.621033,568.186951 514.095093,568.415771 
	C493.764221,571.465149 473.650269,569.968262 453.574310,565.935974 
	C430.971802,561.396301 410.201141,552.057617 389.549072,542.320129 
	C387.380951,541.297852 385.732269,539.651428 384.343628,537.746948 
	C381.161774,533.383179 376.694275,532.578918 371.857819,533.601501 
	C368.005585,534.416016 366.113525,537.420227 365.453766,541.122437 
	C364.557190,546.153137 366.612579,549.795288 370.894440,552.456238 
	C397.783417,569.166077 426.531525,580.799194 457.965698,585.860413 
	C482.227875,589.766846 506.338226,589.698792 530.501648,585.687622 
	C533.606995,585.172180 536.750671,584.530884 539.691467,583.446106 
	C550.157349,579.585205 553.048096,567.938110 545.797852,559.416016 
	C541.665283,554.558411 536.152222,551.822021 530.404907,549.497803 
	C504.294312,538.938477 477.142517,531.423401 450.557281,522.249329 
	C405.227478,506.606873 361.328369,487.935181 321.190033,461.299438 
	C305.054321,450.591736 289.781433,438.771973 275.995605,425.120422 
	C269.349731,418.539246 268.864441,409.203674 274.780701,403.916168 
	C279.841705,399.393005 286.547760,399.116180 292.526672,403.949188 
	C301.225128,410.980469 310.267731,417.491516 319.657837,423.539154 
	C344.274078,439.393219 370.785126,451.445526 397.756866,462.612305 
	C437.054047,478.882111 477.782013,490.811920 518.423401,503.078278 
	C539.440613,509.421722 560.698975,515.111023 581.235962,522.932495 
	C612.183044,534.718689 637.720764,552.787842 650.678894,584.868591 
	C654.450928,594.207214 656.953613,603.815308 657.339966,613.920532 
	C657.403198,615.574890 657.294678,617.279114 658.983459,619.192017 
	C663.885193,613.502441 670.088074,609.233704 669.773865,600.216187 
	C668.908752,575.391602 657.675659,555.563843 640.753723,538.478271 
	C623.427734,520.984741 601.709656,510.703827 578.781128,503.157776 
	C539.415405,490.202057 499.738007,478.196136 460.313416,465.415314 
	C418.573792,451.884033 377.720612,435.986847 339.514008,414.252197 
	C299.961975,391.752136 266.067078,362.975769 244.111771,322.057220 
	C228.467957,292.901489 222.409363,261.831360 225.424179,228.931763 
	C225.862564,224.147598 225.704880,219.319244 228.472153,214.966751 
	C234.423569,205.606064 244.045425,204.844528 251.262497,213.200592 
	C269.226349,233.999451 287.245178,254.750900 305.268250,275.498535 
	C307.509827,278.079041 309.619995,280.908539 313.560303,281.940430 
	C313.820587,277.853668 312.550903,274.384613 311.678680,270.902435 
	C308.903381,259.822540 308.624207,248.482422 308.236420,237.191833 
	C307.979767,229.718750 314.924591,222.934341 322.081055,222.712860 
	C330.002869,222.467712 336.525360,228.571457 337.330109,236.865189 
	C339.135956,255.476364 342.543457,273.752258 348.869995,291.411530 
	C356.011047,311.344330 365.869171,329.812988 379.432373,346.092072 
	C385.205994,353.021820 392.907257,357.951385 400.392120,362.958496 
	C420.005981,376.079498 441.736145,385.177643 462.780243,395.553833 
	C479.358032,403.727875 496.316650,411.132080 512.648071,419.813049 
	C516.573364,421.899567 520.079651,422.742920 523.372009,418.884216 
	C526.297974,415.454956 526.475342,410.985260 523.699036,406.880890 
	C520.866089,402.692749 516.494507,400.499542 512.151306,398.399078 
	C485.909790,385.708038 459.582642,373.192963 433.395630,360.390991 
	C425.324524,356.445312 417.512360,351.940491 409.740509,347.418640 
	C395.738281,339.271881 386.329651,326.796295 378.504181,313.046997 
	C369.503937,297.233734 363.832123,280.277313 362.012054,262.090546 
	C361.154633,253.522781 364.781647,246.897186 371.706085,244.402756 
	C377.078247,242.467514 381.638977,243.685623 385.278381,247.813370 
	C390.729858,253.996231 396.985352,259.237610 403.854858,263.659393 
	C410.107056,267.683746 415.316650,272.470612 419.688721,278.569427 
	C435.939972,301.239136 457.969177,317.221558 481.547211,331.446930 
	C504.946777,345.564636 529.368774,357.886780 552.559448,372.364380 
	C588.405457,394.742462 611.265381,426.358582 620.897644,467.541748 
	C621.719543,471.055847 621.489258,473.005646 617.215149,473.749939 
	C610.508301,474.917816 603.911011,476.758118 597.310547,478.479218 
	C592.807068,479.653473 592.169861,481.477753 594.741638,485.273254 
	C595.860474,486.924469 597.386597,488.322357 598.364136,490.042023 
	C600.445557,493.703583 603.304688,494.290588 607.231323,493.416504 
	C619.791321,490.620453 631.765686,486.050781 643.852966,481.802277 
	C650.388123,479.505219 656.953430,477.294067 663.791931,474.177490 
	C656.375732,469.367615 647.073669,467.290283 643.068176,458.029541 
	C646.459351,456.604492 649.776184,457.775330 652.962830,457.316956 
	C673.569153,454.353088 694.216675,452.066650 715.133057,453.645477 
	C731.490784,454.880188 747.225769,457.479584 760.107727,468.839661 
	C764.461060,472.678741 767.788757,477.229492 769.386597,482.786926 
	C770.203735,485.628845 771.723938,487.298859 774.265808,488.596497 
	C779.013977,491.020508 783.596436,493.754456 787.747803,497.148743 
	C806.211243,512.245117 800.068359,537.594666 787.374817,549.206177 
	C787.038757,549.513611 786.492737,549.591736 786.102417,549.752991 
	C784.492554,549.245239 784.823425,547.916931 784.699951,546.826599 
	C783.829468,539.141602 778.900513,534.227844 771.103271,533.296204 
	C743.079285,529.947876 718.672180,544.100281 707.927673,570.271851 
	C696.102844,599.075012 679.148621,624.355103 656.148621,645.331604 
	C644.197021,656.231750 630.960754,665.554871 616.328125,673.416260 
M732.949829,492.535339 
	C736.527832,491.416077 737.285339,488.699799 736.658875,485.478790 
	C735.997437,482.078217 733.562012,480.259247 730.254639,480.538818 
	C726.740723,480.835846 725.174927,483.425964 725.336609,486.813232 
	C725.539734,491.066315 727.918152,493.031128 732.949829,492.535339 
z"/>
<path fill="#000000" opacity="1.000000" stroke="none" 
	d="
M708.742920,424.436157 
	C712.518799,435.358215 712.519592,435.329437 701.331482,435.031464 
	C679.958069,434.462219 658.744446,435.727478 637.915161,440.937500 
	C633.601013,442.016571 631.217957,441.424896 629.471069,436.491913 
	C617.345337,402.249176 594.239075,376.765503 563.858459,357.912445 
	C541.805054,344.226898 518.946655,331.832001 496.363068,319.009766 
	C483.880524,311.922607 472.159363,303.719360 460.513916,295.382996 
	C459.582214,294.716064 458.500824,294.141998 458.333984,291.721252 
	C510.786377,277.491272 560.950806,284.441772 608.630188,309.360321 
	C656.652039,334.457855 690.051819,372.950928 708.742920,424.436157 
z"/>
</svg>